<svg xmlns="http://www.w3.org/2000/svg" width="1022.822" height="165.273" viewBox="0 0 1022.822 165.273"><path fill="#3B97D3" d="M108.191 45.909c-2.067-3.319-4.646-6.229-7.744-8.739-3.098-2.506-6.603-4.459-10.509-5.863-3.91-1.4-8.003-2.102-12.28-2.102-7.819 0-14.457 1.514-19.912 4.536-5.459 3.025-9.884 7.08-13.275 12.169-3.395 5.089-5.863 10.879-7.412 17.368-1.549 6.492-2.323 13.202-2.323 20.134 0 6.637.774 13.092 2.323 19.359 1.549 6.271 4.017 11.913 7.412 16.925 3.391 5.016 7.816 9.037 13.275 12.058 5.455 3.025 12.093 4.536 19.912 4.536 10.62 0 18.917-3.243 24.891-9.735 5.974-6.489 9.625-15.045 10.952-25.665h33.63c-.885 9.884-3.173 18.806-6.859 26.771-3.688 7.965-8.556 14.751-14.603 20.355-6.05 5.607-13.129 9.883-21.24 12.833-8.114 2.948-17.036 4.425-26.771 4.425-12.096 0-22.975-2.102-32.634-6.306-9.662-4.204-17.811-9.991-24.448-17.368-6.638-7.374-11.727-16.041-15.267-25.997C1.77 105.646 0 94.916 0 83.411 0 71.612 1.77 60.66 5.31 50.555c3.54-10.101 8.629-18.917 15.267-26.439 6.637-7.522 14.786-13.42 24.448-17.7C54.683 2.14 65.562 0 77.658 0c8.702 0 16.926 1.255 24.669 3.761 7.744 2.51 14.675 6.16 20.798 10.952 6.119 4.795 11.173 10.73 15.155 17.811s6.489 15.194 7.522 24.337h-33.63c-.59-3.983-1.917-7.633-3.981-10.952zm80.534-42.148v157.972h-31.417V3.761h31.417zm47.347 130.537c4.719 4.574 11.505 6.859 20.354 6.859 6.34 0 11.799-1.583 16.373-4.757 4.57-3.17 7.373-6.527 8.406-10.067h27.656c-4.424 13.717-11.211 23.528-20.354 29.426-9.148 5.9-20.211 8.85-33.188 8.85-8.999 0-17.113-1.438-24.338-4.314-7.229-2.876-13.351-6.969-18.364-12.279-5.016-5.31-8.888-11.65-11.616-19.028-2.731-7.374-4.093-15.487-4.093-24.337 0-8.553 1.4-16.518 4.204-23.895 2.8-7.374 6.783-13.752 11.947-19.138 5.162-5.382 11.318-9.624 18.475-12.722 7.152-3.098 15.08-4.646 23.785-4.646 9.734 0 18.215 1.88 25.443 5.642 7.225 3.761 13.164 8.815 17.811 15.156 4.646 6.344 8 13.572 10.066 21.683 2.064 8.113 2.801 16.593 2.213 25.443h-82.526c.445 10.177 3.023 17.554 7.746 22.124zm35.511-60.179c-3.762-4.128-9.48-6.195-17.146-6.195-5.017 0-9.183.851-12.501 2.544-3.319 1.697-5.974 3.799-7.965 6.306-1.991 2.51-3.395 5.165-4.204 7.965-.812 2.804-1.293 5.31-1.438 7.522h51.108c-1.478-7.965-4.093-14.011-7.854-18.142zm45.464 8.407c.442-7.374 2.285-13.496 5.531-18.364 3.242-4.867 7.374-8.774 12.39-11.726 5.013-2.949 10.654-5.051 16.926-6.306 6.268-1.251 12.573-1.88 18.917-1.88 5.752 0 11.577.408 17.479 1.217 5.897.812 11.284 2.399 16.151 4.757 4.867 2.361 8.85 5.642 11.947 9.846 3.098 4.204 4.646 9.773 4.646 16.704v59.516c0 5.165.294 10.105.885 14.824.588 4.723 1.621 8.262 3.098 10.62h-31.86c-.591-1.771-1.071-3.575-1.438-5.421-.37-1.842-.63-3.723-.774-5.642-5.017 5.165-10.917 8.777-17.7 10.841-6.786 2.064-13.718 3.098-20.798 3.098-5.458 0-10.547-.664-15.266-1.991-4.723-1.327-8.851-3.392-12.391-6.194-3.539-2.801-6.305-6.341-8.297-10.621-1.991-4.276-2.986-9.365-2.986-15.266 0-6.489 1.141-11.837 3.43-16.041 2.285-4.204 5.233-7.557 8.85-10.067 3.612-2.506 7.744-4.387 12.39-5.642 4.646-1.251 9.327-2.247 14.05-2.987 4.719-.736 9.365-1.327 13.938-1.77 4.57-.442 8.629-1.106 12.169-1.991 3.54-.885 6.34-2.174 8.407-3.872 2.064-1.694 3.021-4.166 2.876-7.412 0-3.391-.553-6.084-1.659-8.076-1.106-1.991-2.582-3.54-4.425-4.646-1.846-1.106-3.982-1.843-6.416-2.212-2.434-.367-5.055-.553-7.854-.553-6.195 0-11.062 1.328-14.603 3.982-3.54 2.655-5.607 7.08-6.195 13.275h-31.418zm72.57 23.231c-1.327 1.182-2.986 2.102-4.978 2.766-1.991.664-4.131 1.217-6.416 1.659-2.289.442-4.685.812-7.191 1.106-2.51.297-5.016.664-7.522 1.106-2.36.443-4.684 1.034-6.969 1.77-2.289.74-4.28 1.735-5.974 2.987-1.697 1.255-3.063 2.842-4.094 4.757-1.033 1.919-1.549 4.353-1.549 7.301 0 2.804.516 5.165 1.549 7.08 1.03 1.919 2.434 3.43 4.204 4.536 1.77 1.106 3.834 1.881 6.195 2.323 2.357.442 4.791.664 7.301.664 6.195 0 10.986-1.03 14.381-3.097 3.392-2.064 5.898-4.536 7.523-7.412 1.621-2.876 2.616-5.787 2.986-8.739.366-2.949.553-5.31.553-7.08v-11.727zm74.559-58.41v15.93h.663c3.983-6.638 9.145-11.467 15.488-14.492 6.34-3.021 12.832-4.536 19.47-4.536 8.407 0 15.301 1.144 20.687 3.429 5.383 2.289 9.625 5.458 12.722 9.514 3.098 4.059 5.272 8.999 6.527 14.824 1.251 5.829 1.881 12.279 1.881 19.359v70.357h-31.418V97.128c0-9.438-1.476-16.483-4.425-21.129-2.952-4.646-8.187-6.969-15.709-6.969-8.556 0-14.751 2.544-18.585 7.633-3.837 5.088-5.752 13.461-5.752 25.112v59.958h-31.418V47.347h29.869z"/><path fill="#CCC" d="M632.102 3.761c7.522 0 14.381.664 20.576 1.991 6.194 1.328 11.505 3.505 15.93 6.527 4.425 3.025 7.854 7.045 10.288 12.058 2.434 5.016 3.65 11.211 3.65 18.585 0 7.965-1.808 14.603-5.42 19.913-3.616 5.31-8.961 9.662-16.041 13.054 9.735 2.804 16.998 7.709 21.793 14.713 4.792 7.007 7.19 15.453 7.19 25.333 0 7.965-1.549 14.862-4.646 20.687-3.098 5.829-7.267 10.585-12.501 14.271-5.237 3.688-11.211 6.417-17.921 8.186-6.714 1.771-13.607 2.655-20.688 2.655H557.76V3.761h74.342zm-4.426 63.941c6.195 0 11.284-1.473 15.267-4.425 3.982-2.949 5.974-7.744 5.974-14.381 0-3.685-.663-6.71-1.991-9.071-1.327-2.357-3.098-4.204-5.31-5.531-2.213-1.328-4.757-2.247-7.634-2.766-2.876-.515-5.862-.774-8.96-.774h-32.524v36.949h35.178zm1.992 67.039c3.391 0 6.637-.332 9.734-.996 3.098-.664 5.825-1.77 8.187-3.318 2.357-1.549 4.238-3.651 5.642-6.306 1.4-2.655 2.102-6.046 2.102-10.178 0-8.11-2.288-13.9-6.858-17.368-4.573-3.464-10.62-5.199-18.143-5.199h-37.834v43.365h37.17zm146.909 26.992v-15.93h-.664c-3.982 6.638-9.146 11.433-15.487 14.381-6.344 2.948-12.832 4.425-19.47 4.425-8.407 0-15.305-1.105-20.687-3.318-5.387-2.213-9.625-5.345-12.723-9.403-3.097-4.055-5.275-8.995-6.526-14.824-1.255-5.825-1.881-12.279-1.881-19.359V47.347h31.418v64.605c0 9.441 1.473 16.483 4.425 21.129 2.949 4.646 8.187 6.969 15.709 6.969 8.553 0 14.747-2.544 18.585-7.633 3.834-5.089 5.752-13.458 5.752-25.112V47.347h31.418v114.386h-29.869zm43.582-132.086V3.761h31.418v25.886h-31.418zm31.418 17.7v114.386h-31.418V47.347h31.418zm46.019-43.586v157.972h-31.418V3.761h31.418zm94.915 143.37c-3.689 6.195-8.519 10.658-14.492 13.386s-12.722 4.093-20.244 4.093c-8.557 0-16.079-1.659-22.567-4.979-6.492-3.318-11.837-7.815-16.041-13.496-4.204-5.676-7.377-12.203-9.514-19.581-2.14-7.374-3.208-15.045-3.208-23.01 0-7.668 1.068-15.08 3.208-22.236 2.137-7.152 5.31-13.458 9.514-18.917 4.204-5.455 9.476-9.845 15.819-13.164 6.34-3.319 13.718-4.978 22.125-4.978 6.783 0 13.237 1.438 19.359 4.314 6.119 2.876 10.952 7.118 14.492 12.722h.442V3.761h31.417v157.972h-29.868V147.13h-.442zm-1.328-56.529c-.885-4.349-2.398-8.186-4.535-11.505-2.14-3.319-4.905-6.008-8.297-8.076-3.395-2.064-7.671-3.098-12.833-3.098-5.164 0-9.514 1.034-13.054 3.098-3.54 2.067-6.381 4.795-8.518 8.186-2.14 3.395-3.688 7.267-4.646 11.616-.961 4.353-1.438 8.888-1.438 13.607 0 4.425.516 8.85 1.549 13.275 1.03 4.425 2.689 8.373 4.979 11.837 2.285 3.467 5.161 6.271 8.629 8.408 3.464 2.14 7.633 3.208 12.5 3.208 5.162 0 9.476-1.03 12.943-3.098 3.464-2.064 6.229-4.83 8.297-8.297 2.063-3.464 3.54-7.412 4.425-11.837.886-4.425 1.328-8.995 1.328-13.717-.001-4.719-.443-9.255-1.329-13.607z"/></svg>
